<mxfile host="app.diagrams.net" modified="2023-07-05T16:50:53.321Z" agent="Mozilla/5.0 (Windows NT 10.0; Win64; x64) AppleWebKit/537.36 (KHTML, like Gecko) Chrome/114.0.0.0 Safari/537.36" etag="zwRQz3dewushCwtAJxSR" version="21.6.1" type="google">
  <diagram name="Page-1" id="uVAHzy7Bsxt0n3DU5dv2">
    <mxGraphModel grid="1" page="1" gridSize="10" guides="1" tooltips="1" connect="1" arrows="1" fold="1" pageScale="1" pageWidth="850" pageHeight="1100" math="0" shadow="0">
      <root>
        <mxCell id="0" />
        <mxCell id="1" parent="0" />
        <mxCell id="3qSn8x5AVcvAA4opCcy1-1" value="Fine-Tuning and Masked Language Models" style="rounded=0;whiteSpace=wrap;html=1;fillColor=#d5e8d4;strokeColor=#82b366;fontStyle=1;fontSize=12;" vertex="1" parent="1">
          <mxGeometry x="690" y="100" width="120" height="60" as="geometry" />
        </mxCell>
        <mxCell id="3qSn8x5AVcvAA4opCcy1-2" value="Bidirectional Transformer Encoders" style="rounded=0;whiteSpace=wrap;html=1;fillColor=#dae8fc;strokeColor=#6c8ebf;fontStyle=1" vertex="1" parent="1">
          <mxGeometry x="80" y="210" width="120" height="60" as="geometry" />
        </mxCell>
        <mxCell id="mcrmy7zmZfjpJYNXYw9w-2" value="" style="edgeStyle=orthogonalEdgeStyle;rounded=0;orthogonalLoop=1;jettySize=auto;html=1;fontStyle=1" edge="1" parent="1" source="3qSn8x5AVcvAA4opCcy1-3" target="3qSn8x5AVcvAA4opCcy1-16">
          <mxGeometry relative="1" as="geometry" />
        </mxCell>
        <mxCell id="3qSn8x5AVcvAA4opCcy1-3" value="Training Bidirectional Encoders" style="rounded=0;whiteSpace=wrap;html=1;fillColor=#e1d5e7;strokeColor=#9673a6;fontStyle=1" vertex="1" parent="1">
          <mxGeometry x="480" y="340" width="120" height="60" as="geometry" />
        </mxCell>
        <mxCell id="mcrmy7zmZfjpJYNXYw9w-18" value="" style="edgeStyle=orthogonalEdgeStyle;rounded=0;orthogonalLoop=1;jettySize=auto;html=1;fontStyle=1" edge="1" parent="1" source="3qSn8x5AVcvAA4opCcy1-4" target="mcrmy7zmZfjpJYNXYw9w-11">
          <mxGeometry relative="1" as="geometry" />
        </mxCell>
        <mxCell id="3qSn8x5AVcvAA4opCcy1-4" value="Transfer Learning through Fine-Tuning" style="rounded=0;whiteSpace=wrap;html=1;fillColor=#f8cecc;strokeColor=#b85450;fontStyle=1" vertex="1" parent="1">
          <mxGeometry x="1230" y="230" width="120" height="60" as="geometry" />
        </mxCell>
        <mxCell id="3qSn8x5AVcvAA4opCcy1-5" value="Address the limitations of causal transformers" style="rounded=0;whiteSpace=wrap;html=1;fillColor=#b0e3e6;strokeColor=#0e8088;fontStyle=1" vertex="1" parent="1">
          <mxGeometry x="-150" y="340" width="120" height="60" as="geometry" />
        </mxCell>
        <mxCell id="3qSn8x5AVcvAA4opCcy1-6" value="Self-Attention" style="rounded=0;whiteSpace=wrap;html=1;fillColor=#d0cee2;strokeColor=#56517e;fontStyle=1" vertex="1" parent="1">
          <mxGeometry y="340" width="120" height="60" as="geometry" />
        </mxCell>
        <mxCell id="3qSn8x5AVcvAA4opCcy1-7" value="Subword tokenization &amp;amp; Positional Embeddings" style="rounded=0;whiteSpace=wrap;html=1;fillColor=#fad7ac;strokeColor=#b46504;fontStyle=1" vertex="1" parent="1">
          <mxGeometry x="160" y="340" width="120" height="60" as="geometry" />
        </mxCell>
        <mxCell id="3qSn8x5AVcvAA4opCcy1-8" value="" style="endArrow=classic;html=1;rounded=0;entryX=0.5;entryY=0;entryDx=0;entryDy=0;exitX=0;exitY=0.5;exitDx=0;exitDy=0;" edge="1" parent="1" source="3qSn8x5AVcvAA4opCcy1-1" target="3qSn8x5AVcvAA4opCcy1-2">
          <mxGeometry width="50" height="50" relative="1" as="geometry">
            <mxPoint x="250" y="180" as="sourcePoint" />
            <mxPoint x="300" y="130" as="targetPoint" />
            <Array as="points">
              <mxPoint x="140" y="130" />
            </Array>
          </mxGeometry>
        </mxCell>
        <mxCell id="3qSn8x5AVcvAA4opCcy1-9" value="" style="endArrow=classic;html=1;rounded=0;entryX=0.5;entryY=0;entryDx=0;entryDy=0;exitX=1;exitY=0.5;exitDx=0;exitDy=0;" edge="1" parent="1" source="3qSn8x5AVcvAA4opCcy1-1" target="3qSn8x5AVcvAA4opCcy1-4">
          <mxGeometry width="50" height="50" relative="1" as="geometry">
            <mxPoint x="540" y="200" as="sourcePoint" />
            <mxPoint x="590" y="150" as="targetPoint" />
            <Array as="points">
              <mxPoint x="980" y="130" />
              <mxPoint x="1190" y="130" />
              <mxPoint x="1290" y="130" />
            </Array>
          </mxGeometry>
        </mxCell>
        <mxCell id="3qSn8x5AVcvAA4opCcy1-10" value="" style="endArrow=classic;html=1;rounded=0;entryX=0.5;entryY=0;entryDx=0;entryDy=0;exitX=0;exitY=0.5;exitDx=0;exitDy=0;fontStyle=1" edge="1" parent="1" source="3qSn8x5AVcvAA4opCcy1-2" target="3qSn8x5AVcvAA4opCcy1-5">
          <mxGeometry width="50" height="50" relative="1" as="geometry">
            <mxPoint x="-60" y="320" as="sourcePoint" />
            <mxPoint x="-10" y="270" as="targetPoint" />
            <Array as="points">
              <mxPoint x="-90" y="240" />
            </Array>
          </mxGeometry>
        </mxCell>
        <mxCell id="3qSn8x5AVcvAA4opCcy1-11" value="" style="endArrow=classic;html=1;rounded=0;entryX=0.5;entryY=0;entryDx=0;entryDy=0;exitX=0;exitY=0.75;exitDx=0;exitDy=0;fontStyle=1" edge="1" parent="1" source="3qSn8x5AVcvAA4opCcy1-2" target="3qSn8x5AVcvAA4opCcy1-6">
          <mxGeometry width="50" height="50" relative="1" as="geometry">
            <mxPoint x="30" y="330" as="sourcePoint" />
            <mxPoint x="80" y="280" as="targetPoint" />
            <Array as="points">
              <mxPoint x="60" y="255" />
              <mxPoint x="60" y="290" />
            </Array>
          </mxGeometry>
        </mxCell>
        <mxCell id="3qSn8x5AVcvAA4opCcy1-12" value="" style="endArrow=classic;html=1;rounded=0;entryX=0.5;entryY=0;entryDx=0;entryDy=0;fontStyle=1" edge="1" parent="1" target="3qSn8x5AVcvAA4opCcy1-7">
          <mxGeometry width="50" height="50" relative="1" as="geometry">
            <mxPoint x="200" y="260" as="sourcePoint" />
            <mxPoint x="190" y="290" as="targetPoint" />
            <Array as="points">
              <mxPoint x="220" y="260" />
              <mxPoint x="220" y="290" />
            </Array>
          </mxGeometry>
        </mxCell>
        <mxCell id="3qSn8x5AVcvAA4opCcy1-13" value="" style="endArrow=classic;html=1;rounded=0;exitX=1;exitY=0.75;exitDx=0;exitDy=0;entryX=0.5;entryY=0;entryDx=0;entryDy=0;fontStyle=1" edge="1" parent="1" source="3qSn8x5AVcvAA4opCcy1-2" target="3qSn8x5AVcvAA4opCcy1-3">
          <mxGeometry width="50" height="50" relative="1" as="geometry">
            <mxPoint x="240" y="330" as="sourcePoint" />
            <mxPoint x="290" y="280" as="targetPoint" />
            <Array as="points">
              <mxPoint x="540" y="255" />
            </Array>
          </mxGeometry>
        </mxCell>
        <mxCell id="3qSn8x5AVcvAA4opCcy1-14" value="Masking Words" style="rounded=0;whiteSpace=wrap;html=1;fillColor=#ffcccc;strokeColor=#36393d;fontStyle=1" vertex="1" parent="1">
          <mxGeometry x="200" y="520" width="120" height="60" as="geometry" />
        </mxCell>
        <mxCell id="3qSn8x5AVcvAA4opCcy1-15" value="Masking Spans" style="rounded=0;whiteSpace=wrap;html=1;fillColor=#eeeeee;strokeColor=#36393d;fontStyle=1" vertex="1" parent="1">
          <mxGeometry x="380" y="520" width="120" height="60" as="geometry" />
        </mxCell>
        <mxCell id="3qSn8x5AVcvAA4opCcy1-16" value="Next Sentence Prediction (NSP)" style="rounded=0;whiteSpace=wrap;html=1;fillColor=#f8cecc;strokeColor=#b85450;fontStyle=1" vertex="1" parent="1">
          <mxGeometry x="480" y="430" width="120" height="60" as="geometry" />
        </mxCell>
        <mxCell id="3qSn8x5AVcvAA4opCcy1-17" value="Masked Language&lt;br&gt;Modeling (MLM)" style="rounded=0;whiteSpace=wrap;html=1;fillColor=#cdeb8b;strokeColor=#36393d;fontStyle=1" vertex="1" parent="1">
          <mxGeometry x="290" y="430" width="120" height="60" as="geometry" />
        </mxCell>
        <mxCell id="mcrmy7zmZfjpJYNXYw9w-6" value="" style="edgeStyle=orthogonalEdgeStyle;rounded=0;orthogonalLoop=1;jettySize=auto;html=1;fontStyle=1" edge="1" parent="1" source="3qSn8x5AVcvAA4opCcy1-18" target="3qSn8x5AVcvAA4opCcy1-20">
          <mxGeometry relative="1" as="geometry" />
        </mxCell>
        <mxCell id="3qSn8x5AVcvAA4opCcy1-18" value="Training Regimes" style="rounded=0;whiteSpace=wrap;html=1;fillColor=#dae8fc;strokeColor=#6c8ebf;fontStyle=1" vertex="1" parent="1">
          <mxGeometry x="690" y="430" width="120" height="60" as="geometry" />
        </mxCell>
        <mxCell id="3qSn8x5AVcvAA4opCcy1-19" value="BooksCorpus &amp;amp;&amp;nbsp;English Wikipedia" style="rounded=0;whiteSpace=wrap;html=1;fillColor=#e1d5e7;strokeColor=#9673a6;fontStyle=1" vertex="1" parent="1">
          <mxGeometry x="560" y="520" width="120" height="60" as="geometry" />
        </mxCell>
        <mxCell id="3qSn8x5AVcvAA4opCcy1-20" value="Approaches" style="rounded=0;whiteSpace=wrap;html=1;fillColor=#ffe6cc;strokeColor=#d79b00;fontStyle=1" vertex="1" parent="1">
          <mxGeometry x="690" y="520" width="120" height="60" as="geometry" />
        </mxCell>
        <mxCell id="3qSn8x5AVcvAA4opCcy1-21" value="Hyperparameters" style="rounded=0;whiteSpace=wrap;html=1;fillColor=#fad9d5;strokeColor=#ae4132;fontStyle=1" vertex="1" parent="1">
          <mxGeometry x="820" y="520" width="120" height="60" as="geometry" />
        </mxCell>
        <mxCell id="mcrmy7zmZfjpJYNXYw9w-1" value="" style="endArrow=classic;html=1;rounded=0;entryX=0.5;entryY=0;entryDx=0;entryDy=0;exitX=0;exitY=0.5;exitDx=0;exitDy=0;fontStyle=1" edge="1" parent="1" source="3qSn8x5AVcvAA4opCcy1-3" target="3qSn8x5AVcvAA4opCcy1-17">
          <mxGeometry width="50" height="50" relative="1" as="geometry">
            <mxPoint x="330" y="410" as="sourcePoint" />
            <mxPoint x="380" y="360" as="targetPoint" />
            <Array as="points">
              <mxPoint x="350" y="370" />
            </Array>
          </mxGeometry>
        </mxCell>
        <mxCell id="mcrmy7zmZfjpJYNXYw9w-3" value="" style="endArrow=classic;html=1;rounded=0;entryX=0.5;entryY=0;entryDx=0;entryDy=0;exitX=1;exitY=0.5;exitDx=0;exitDy=0;fontStyle=1" edge="1" parent="1" source="3qSn8x5AVcvAA4opCcy1-3" target="3qSn8x5AVcvAA4opCcy1-18">
          <mxGeometry width="50" height="50" relative="1" as="geometry">
            <mxPoint x="660" y="400" as="sourcePoint" />
            <mxPoint x="710" y="350" as="targetPoint" />
            <Array as="points">
              <mxPoint x="750" y="370" />
            </Array>
          </mxGeometry>
        </mxCell>
        <mxCell id="mcrmy7zmZfjpJYNXYw9w-4" value="" style="endArrow=classic;html=1;rounded=0;entryX=0.5;entryY=0;entryDx=0;entryDy=0;exitX=0;exitY=0.5;exitDx=0;exitDy=0;fontStyle=1" edge="1" parent="1" source="3qSn8x5AVcvAA4opCcy1-17" target="3qSn8x5AVcvAA4opCcy1-14">
          <mxGeometry width="50" height="50" relative="1" as="geometry">
            <mxPoint x="100" y="480" as="sourcePoint" />
            <mxPoint x="150" y="430" as="targetPoint" />
            <Array as="points">
              <mxPoint x="260" y="460" />
            </Array>
          </mxGeometry>
        </mxCell>
        <mxCell id="mcrmy7zmZfjpJYNXYw9w-5" value="" style="endArrow=classic;html=1;rounded=0;entryX=0.5;entryY=0;entryDx=0;entryDy=0;exitX=0;exitY=0.5;exitDx=0;exitDy=0;fontStyle=1" edge="1" parent="1" source="3qSn8x5AVcvAA4opCcy1-18" target="3qSn8x5AVcvAA4opCcy1-19">
          <mxGeometry width="50" height="50" relative="1" as="geometry">
            <mxPoint x="630" y="500" as="sourcePoint" />
            <mxPoint x="680" y="450" as="targetPoint" />
            <Array as="points">
              <mxPoint x="620" y="460" />
            </Array>
          </mxGeometry>
        </mxCell>
        <mxCell id="mcrmy7zmZfjpJYNXYw9w-7" value="" style="endArrow=classic;html=1;rounded=0;exitX=1;exitY=0.5;exitDx=0;exitDy=0;entryX=0.5;entryY=0;entryDx=0;entryDy=0;fontStyle=1" edge="1" parent="1" source="3qSn8x5AVcvAA4opCcy1-18" target="3qSn8x5AVcvAA4opCcy1-21">
          <mxGeometry width="50" height="50" relative="1" as="geometry">
            <mxPoint x="840" y="490" as="sourcePoint" />
            <mxPoint x="890" y="440" as="targetPoint" />
            <Array as="points">
              <mxPoint x="880" y="460" />
            </Array>
          </mxGeometry>
        </mxCell>
        <mxCell id="mcrmy7zmZfjpJYNXYw9w-8" value="Contextual Embeddings" style="rounded=0;whiteSpace=wrap;html=1;fillColor=#fff2cc;strokeColor=#d6b656;fontStyle=1" vertex="1" parent="1">
          <mxGeometry x="820" y="340" width="120" height="60" as="geometry" />
        </mxCell>
        <mxCell id="mcrmy7zmZfjpJYNXYw9w-9" value="" style="endArrow=classic;html=1;rounded=0;exitX=1;exitY=0.25;exitDx=0;exitDy=0;entryX=0.5;entryY=0;entryDx=0;entryDy=0;fontStyle=1" edge="1" parent="1" source="3qSn8x5AVcvAA4opCcy1-2" target="mcrmy7zmZfjpJYNXYw9w-8">
          <mxGeometry width="50" height="50" relative="1" as="geometry">
            <mxPoint x="500" y="270" as="sourcePoint" />
            <mxPoint x="550" y="220" as="targetPoint" />
            <Array as="points">
              <mxPoint x="830" y="225" />
              <mxPoint x="880" y="225" />
            </Array>
          </mxGeometry>
        </mxCell>
        <mxCell id="mcrmy7zmZfjpJYNXYw9w-22" value="" style="edgeStyle=orthogonalEdgeStyle;rounded=0;orthogonalLoop=1;jettySize=auto;html=1;fontStyle=1" edge="1" parent="1" source="mcrmy7zmZfjpJYNXYw9w-10" target="mcrmy7zmZfjpJYNXYw9w-14">
          <mxGeometry relative="1" as="geometry" />
        </mxCell>
        <mxCell id="mcrmy7zmZfjpJYNXYw9w-10" value="Sequence Classification" style="rounded=0;whiteSpace=wrap;html=1;fillColor=#ffcc99;strokeColor=#36393d;fontStyle=1" vertex="1" parent="1">
          <mxGeometry x="1060" y="340" width="120" height="60" as="geometry" />
        </mxCell>
        <mxCell id="mcrmy7zmZfjpJYNXYw9w-23" value="" style="edgeStyle=orthogonalEdgeStyle;rounded=0;orthogonalLoop=1;jettySize=auto;html=1;fontStyle=1" edge="1" parent="1" source="mcrmy7zmZfjpJYNXYw9w-11" target="mcrmy7zmZfjpJYNXYw9w-15">
          <mxGeometry relative="1" as="geometry" />
        </mxCell>
        <mxCell id="mcrmy7zmZfjpJYNXYw9w-11" value="&amp;nbsp;Pair-Wise Sequence Classification" style="rounded=0;whiteSpace=wrap;html=1;fillColor=#dae8fc;strokeColor=#6c8ebf;fontStyle=1" vertex="1" parent="1">
          <mxGeometry x="1230" y="340" width="120" height="60" as="geometry" />
        </mxCell>
        <mxCell id="mcrmy7zmZfjpJYNXYw9w-12" value="Sequence Labelling" style="rounded=0;whiteSpace=wrap;html=1;fillColor=#ffe6cc;strokeColor=#d79b00;fontStyle=1" vertex="1" parent="1">
          <mxGeometry x="1400" y="340" width="120" height="60" as="geometry" />
        </mxCell>
        <mxCell id="mcrmy7zmZfjpJYNXYw9w-24" value="" style="edgeStyle=orthogonalEdgeStyle;rounded=0;orthogonalLoop=1;jettySize=auto;html=1;fontStyle=1" edge="1" parent="1" source="mcrmy7zmZfjpJYNXYw9w-13" target="mcrmy7zmZfjpJYNXYw9w-16">
          <mxGeometry relative="1" as="geometry" />
        </mxCell>
        <mxCell id="mcrmy7zmZfjpJYNXYw9w-13" value="Fine-tuning for Span-Based Applications" style="rounded=0;whiteSpace=wrap;html=1;fillColor=#dae8fc;strokeColor=#6c8ebf;fontStyle=1" vertex="1" parent="1">
          <mxGeometry x="1560" y="340" width="120" height="60" as="geometry" />
        </mxCell>
        <mxCell id="mcrmy7zmZfjpJYNXYw9w-14" value="Sentence Embedding" style="rounded=0;whiteSpace=wrap;html=1;fillColor=#cce5ff;strokeColor=#36393d;fontStyle=1" vertex="1" parent="1">
          <mxGeometry x="1060" y="430" width="120" height="60" as="geometry" />
        </mxCell>
        <mxCell id="mcrmy7zmZfjpJYNXYw9w-15" value="Natural Language Inference" style="rounded=0;whiteSpace=wrap;html=1;fillColor=#cdeb8b;strokeColor=#36393d;fontStyle=1" vertex="1" parent="1">
          <mxGeometry x="1230" y="430" width="120" height="60" as="geometry" />
        </mxCell>
        <mxCell id="mcrmy7zmZfjpJYNXYw9w-16" value="Examples" style="rounded=0;whiteSpace=wrap;html=1;fillColor=#d5e8d4;strokeColor=#82b366;fontStyle=1" vertex="1" parent="1">
          <mxGeometry x="1560" y="430" width="120" height="60" as="geometry" />
        </mxCell>
        <mxCell id="mcrmy7zmZfjpJYNXYw9w-17" value="" style="endArrow=classic;html=1;rounded=0;exitX=1;exitY=0.5;exitDx=0;exitDy=0;entryX=0.5;entryY=0;entryDx=0;entryDy=0;fontStyle=1" edge="1" parent="1" source="3qSn8x5AVcvAA4opCcy1-17" target="3qSn8x5AVcvAA4opCcy1-15">
          <mxGeometry width="50" height="50" relative="1" as="geometry">
            <mxPoint x="350" y="510" as="sourcePoint" />
            <mxPoint x="400" y="460" as="targetPoint" />
            <Array as="points">
              <mxPoint x="440" y="460" />
            </Array>
          </mxGeometry>
        </mxCell>
        <mxCell id="mcrmy7zmZfjpJYNXYw9w-19" value="" style="endArrow=classic;html=1;rounded=0;exitX=0;exitY=0.5;exitDx=0;exitDy=0;entryX=0.5;entryY=0;entryDx=0;entryDy=0;fontStyle=1" edge="1" parent="1" source="3qSn8x5AVcvAA4opCcy1-4" target="mcrmy7zmZfjpJYNXYw9w-10">
          <mxGeometry width="50" height="50" relative="1" as="geometry">
            <mxPoint x="1100" y="370" as="sourcePoint" />
            <mxPoint x="1150" y="320" as="targetPoint" />
            <Array as="points">
              <mxPoint x="1120" y="260" />
            </Array>
          </mxGeometry>
        </mxCell>
        <mxCell id="mcrmy7zmZfjpJYNXYw9w-20" value="" style="endArrow=classic;html=1;rounded=0;entryX=0.5;entryY=0;entryDx=0;entryDy=0;fontStyle=1" edge="1" parent="1" target="mcrmy7zmZfjpJYNXYw9w-12">
          <mxGeometry width="50" height="50" relative="1" as="geometry">
            <mxPoint x="1350" y="280" as="sourcePoint" />
            <mxPoint x="1470" y="270" as="targetPoint" />
            <Array as="points">
              <mxPoint x="1410" y="280" />
              <mxPoint x="1460" y="280" />
            </Array>
          </mxGeometry>
        </mxCell>
        <mxCell id="mcrmy7zmZfjpJYNXYw9w-21" value="" style="endArrow=classic;html=1;rounded=0;exitX=1;exitY=0.5;exitDx=0;exitDy=0;entryX=0.5;entryY=0;entryDx=0;entryDy=0;fontStyle=1" edge="1" parent="1" source="3qSn8x5AVcvAA4opCcy1-4" target="mcrmy7zmZfjpJYNXYw9w-13">
          <mxGeometry width="50" height="50" relative="1" as="geometry">
            <mxPoint x="1390" y="280" as="sourcePoint" />
            <mxPoint x="1440" y="230" as="targetPoint" />
            <Array as="points">
              <mxPoint x="1620" y="260" />
            </Array>
          </mxGeometry>
        </mxCell>
        <mxCell id="nDVAoMWzOggYJC1NDSyn-1" value="&lt;b style=&quot;font-size: 24px;&quot;&gt;&lt;font style=&quot;font-size: 24px;&quot;&gt;A Concept Map on&amp;nbsp;Fine-Tuning and Masked Language Models&lt;/font&gt;&lt;/b&gt;" style="text;html=1;strokeColor=none;fillColor=none;align=center;verticalAlign=middle;whiteSpace=wrap;rounded=0;fontSize=24;" vertex="1" parent="1">
          <mxGeometry x="230" y="40" width="1000" height="30" as="geometry" />
        </mxCell>
      </root>
    </mxGraphModel>
  </diagram>
</mxfile>
